<?xml version="1.0" encoding="UTF-8" standalone="no"?><svg xmlns="http://www.w3.org/2000/svg" xmlns:xlink="http://www.w3.org/1999/xlink" contentScriptType="application/ecmascript" contentStyleType="text/css" height="684px" preserveAspectRatio="none" style="width:1006px;height:684px;background:#FFFFFF;" version="1.1" viewBox="0 0 1006 684" width="1006px" zoomAndPan="magnify"><defs/><g><!--MD5=[6701fae3df526cca14a51b200d8bfe9a]
cluster GCP--><polygon fill="#FFFFFF" points="16,164.5,16,164.5701,23.2,164.3619,30.4,164.5644,37.6,164.6332,44.8,164.2622,52,164.5,51.9752,164.4926,53.2637,169.1815,54.6774,173.9074,56.1782,178.6592,57.3791,183.322,59,188.1094,59,188.663,68.95,187.4791,78.9,187.9116,88.85,188.5413,98.8,188.0236,108.75,188.1776,118.7,188.0774,128.65,188.2879,138.6,188.3485,148.55,188.6951,158.5,188.7804,168.45,188.7886,178.4,188.364,188.35,188.573,198.3,188.8116,208.25,187.3882,218.2,188.7879,228.15,187.8129,238.1,188.6432,248.05,187.6144,258,188.0409,267.95,188.851,277.9,188.0606,287.85,188.2147,297.8,188.448,307.75,188.5256,317.7,188.1055,327.65,188.3966,337.6,187.537,347.55,188.3938,357.5,188.6576,367.45,188.5539,377.4,188.7224,387.35,187.6263,397.3,187.4572,407.25,187.488,417.2,188.0505,427.15,187.9128,437.1,188.7908,447.05,187.9347,457,187.7663,466.95,188.3376,476.9,187.4425,486.85,187.5902,496.8,188.7583,506.75,188.545,516.7,188.8439,526.65,187.7876,536.6,188.4286,546.55,188.6998,556.5,187.637,566.45,188.0135,576.4,188.2354,586.35,188.7611,596.3,188.1052,606.25,188.5719,616.2,187.5556,626.15,187.4321,636.1,188.613,646.05,187.3924,656,188.6183,665.95,188.316,675.9,187.8415,685.85,187.7556,695.8,188.5681,705.75,187.81,715.7,188.7012,725.65,187.5566,735.6,188.7268,745.55,188.5937,755.5,188.3543,765.45,188.1566,775.4,188.836,785.35,188.723,795.3,188.2786,805.25,188.3776,815.2,187.9791,825.15,188.8258,835.1,188.2642,845.05,188.2819,855,188.1094,854.3916,188.1094,854.5948,198.0969,855.5307,208.0845,855.4298,218.0721,854.9571,228.0596,854.6778,238.0472,854.7811,248.0348,854.3138,258.0223,855.4147,268.0099,855.7396,277.9974,855.5264,287.985,855.6949,297.9726,854.8633,307.9601,855.0872,317.9477,854.6124,327.9353,855.284,337.9228,855.2468,347.9104,855.5524,357.898,854.7703,367.8855,854.8656,377.8731,855.4435,387.8607,855.5673,397.8482,854.4875,407.8358,854.8061,417.8233,855.1493,427.8109,854.3892,437.7985,855.3534,447.786,855.258,457.7736,854.8992,467.7612,855.1422,477.7487,855.7287,487.7363,854.6871,497.7239,855.315,507.7114,855.2856,517.699,855.1158,527.6865,855.1409,537.6741,855.1135,547.6617,854.3758,557.6492,854.5992,567.6368,854.5385,577.6244,855.0638,587.6119,855.0881,597.5995,855.1617,607.5871,854.709,617.5746,854.9325,627.5622,854.8798,637.5497,855.5769,647.5373,855.4266,657.5249,854.5145,667.5124,855,677.5,855,677.4271,845.0119,676.9228,835.0238,677.7884,825.0357,678.1085,815.0476,678.0446,805.0595,677.0644,795.0714,677.964,785.0833,676.7572,775.0952,677.7002,765.1071,677.2007,755.119,677.5967,745.131,677.7403,735.1429,677.9721,725.1548,676.7801,715.1667,677.9755,705.1786,677.6782,695.1905,677.8553,685.2024,678.2478,675.2143,677.5055,665.2262,677.6753,655.2381,677.7134,645.25,677.6972,635.2619,677.4992,625.2738,678.2107,615.2857,676.8903,605.2976,678.0653,595.3095,676.876,585.3214,676.9597,575.3333,677.54,565.3452,677.5283,555.3571,677.0072,545.369,677.9137,535.381,677.6089,525.3929,678.2267,515.4048,678.1671,505.4167,677.0517,495.4286,677.1021,485.4405,677.3708,475.4524,677.8555,465.4643,677.903,455.4762,677.8012,445.4881,677.158,435.5,678.1364,425.5119,678.1338,415.5238,677.4527,405.5357,677.2609,395.5476,677.0986,385.5595,677.2854,375.5714,677.6374,365.5833,677.4316,355.5952,677.0822,345.6071,677.9874,335.619,677.0411,325.631,678.0024,315.6429,677.9272,305.6548,677.8719,295.6667,678.1925,285.6786,677.2541,275.6905,677.1994,265.7024,678.0189,255.7143,676.9031,245.7262,677.266,235.7381,677.6155,225.75,677.5687,215.7619,677.1415,205.7738,677.457,195.7857,678.2446,185.7976,678.1485,175.8095,676.9037,165.8214,677.5785,155.8333,676.9861,145.8452,677.4737,135.8571,677.793,125.869,677.9199,115.881,676.8353,105.8929,677.9005,95.9048,677.5084,85.9167,676.9447,75.9286,677.0289,65.9405,677.8266,55.9524,677.7499,45.9643,677.4836,35.9762,676.8279,25.9881,678.1581,16,677.5,15.6882,677.5,15.4719,667.4412,15.9327,657.3824,16.5897,647.3235,16.6154,637.2647,16.0351,627.2059,15.8488,617.1471,16.1698,607.0882,16.1862,597.0294,15.4922,586.9706,16.414,576.9118,16.5588,566.8529,15.7842,556.7941,15.5708,546.7353,16.6746,536.6765,16.021,526.6176,15.9998,516.5588,16.299,506.5,15.3543,496.4412,16.53,486.3824,15.9846,476.3235,16.6688,466.2647,15.7841,456.2059,16.409,446.1471,15.556,436.0882,16.245,426.0294,16.3793,415.9706,15.6727,405.9118,16.363,395.8529,15.4286,385.7941,15.5295,375.7353,16.6828,365.6765,16.6844,355.6176,16.5685,345.5588,15.6396,335.5,16.3842,325.4412,15.5279,315.3824,16.0582,305.3235,15.9987,295.2647,15.7376,285.2059,16.6159,275.1471,16.4433,265.0882,15.6792,255.0294,16.5266,244.9706,16.0919,234.9118,15.4164,224.8529,15.7667,214.7941,15.4747,204.7353,15.8609,194.6765,15.371,184.6176,15.3998,174.5588,16,164.5" style="stroke:#000000;stroke-width:1.5;"/><path d="M16,188.1094 L16,188.2028 L24.6,187.9252 L33.2,188.1953 L41.8,188.287 L50.4,187.7923 L59,188.1094 " fill="#FFFFFF" style="stroke:#000000;stroke-width:1.5;"/><text fill="#000000" font-family="sans-serif" font-size="14" font-weight="bold" lengthAdjust="spacing" textLength="30" x="20" y="181.0332">GCP</text><!--MD5=[78d2a2ba5fca8b36895c9f083d4b1b32]
cluster Private Memos--><polygon fill="#FFFFFF" points="40,208.5,40,208.7102,50.0909,208.0857,60.1818,208.6933,70.2727,208.8997,80.3636,207.7866,90.4545,208.4223,100.5455,208.0735,110.6364,208.1165,120.7273,208.4318,130.8182,207.8086,140.9091,209.0536,151,208.5,150.7986,208.4403,152.3368,213.2031,153.938,217.9847,155.1726,222.6575,156.6218,227.394,158,232.1094,158,232.0774,168.0476,232.2879,178.0952,232.3485,188.1429,232.6951,198.1905,232.7804,208.2381,232.7886,218.2857,232.364,228.3333,232.573,238.381,232.8116,248.4286,231.3882,258.4762,232.7879,268.5238,231.8129,278.5714,232.6432,288.619,231.6144,298.6667,232.0409,308.7143,232.851,318.7619,232.0606,328.8095,232.2147,338.8571,232.448,348.9048,232.5256,358.9524,232.1055,369,232.1094,369.2872,232.1094,368.4276,242.4861,369.2844,252.8628,369.5482,263.2396,369.4445,273.6163,369.613,283.9931,368.5169,294.3698,368.3478,304.7465,368.3786,315.1233,369,325.5,369,325.4411,359.0303,325.3035,349.0606,326.1814,339.0909,325.3253,329.1212,325.1569,319.1515,325.7283,309.1818,324.8332,299.2121,324.9809,289.2424,326.149,279.2727,325.9357,269.303,326.2345,259.3333,325.1782,249.3636,325.8192,239.3939,326.0904,229.4242,325.0276,219.4545,325.4041,209.4848,325.626,199.5152,326.1518,189.5455,325.4958,179.5758,325.9626,169.6061,324.9462,159.6364,324.8227,149.6667,326.0036,139.697,324.7831,129.7273,326.009,119.7576,325.7066,109.7879,325.2321,99.8182,325.1462,89.8485,325.9588,79.8788,325.2007,69.9091,326.0919,59.9394,324.9473,49.9697,326.1174,40,325.5,40.4843,325.5,40.245,315.75,40.0472,306,40.7266,296.25,40.6136,286.5,40.1693,276.75,40.2682,267,39.8697,257.25,40.7165,247.5,40.1549,237.75,40.1726,228,39.3916,218.25,40,208.5" style="stroke:#000000;stroke-width:1.5;"/><path d="M40,232.1094 L40,232.3896 L49.8333,231.5569 L59.6667,232.3671 L69.5,232.6423 L79.3333,231.1582 L89.1667,232.0058 L99,231.5407 L108.8333,231.598 L118.6667,232.0185 L128.5,231.1875 L138.3333,232.8476 L148.1667,231.269 L158,232.1094 " fill="#FFFFFF" style="stroke:#000000;stroke-width:1.5;"/><text fill="#000000" font-family="sans-serif" font-size="14" font-weight="bold" lengthAdjust="spacing" textLength="105" x="44" y="225.0332">Private Memos</text><!--MD5=[6806741888024135e736dff9247c8611]
cluster Public Memos--><polygon fill="#FFFFFF" points="393,208.5,393,208.7102,403.4,208.0857,413.8,208.6933,424.2,208.8997,434.6,207.7866,445,208.4223,455.4,208.0735,465.8,208.1165,476.2,208.4318,486.6,207.8086,497,208.5,497.1769,208.5525,498.1986,213.1622,499.7368,217.925,501.338,222.7066,502.5726,227.3794,504,232.1094,504,232.1776,513.9091,232.0774,523.8182,232.2879,533.7273,232.3485,543.6364,232.6951,553.5455,232.7804,563.4545,232.7886,573.3636,232.364,583.2727,232.573,593.1818,232.8116,603.0909,231.3882,613,232.7879,622.9091,231.8129,632.8182,232.6432,642.7273,231.6144,652.6364,232.0409,662.5455,232.851,672.4545,232.0606,682.3636,232.2147,692.2727,232.448,702.1818,232.5256,712.0909,232.1055,722,232.3966,731.9091,231.537,741.8182,232.3938,751.7273,232.6576,761.6364,232.5539,771.5455,232.7224,781.4545,231.6263,791.3636,231.4572,801.2727,231.488,811.1818,232.0505,821.0909,231.9128,831,232.1094,831.6814,232.1094,830.8253,242.285,830.6569,252.4606,831.2283,262.6363,830.3332,272.8119,830.4809,282.9875,831.649,293.1631,831.4357,303.3388,831.7345,313.5144,830.6782,323.69,831.3192,333.8656,831.5904,344.0413,830.5276,354.2169,830.9041,364.3925,831.126,374.5681,831.6518,384.7438,830.9958,394.9194,831.4626,405.095,830.4462,415.2706,830.3227,425.4462,831.5036,435.6219,830.2831,445.7975,831.509,455.9731,831.2066,466.1488,830.7321,476.3244,831,486.5,831,486.1462,821.0455,486.9588,811.0909,486.2007,801.1364,487.0919,791.1818,485.9473,781.2273,487.1174,771.2727,486.9843,761.3182,486.745,751.3636,486.5472,741.4091,487.2266,731.4545,487.1136,721.5,486.6693,711.5455,486.7682,701.5909,486.3697,691.6364,487.2165,681.6818,486.6549,671.7273,486.6726,661.7727,485.8916,651.8182,486.0948,641.8636,487.0307,631.9091,486.9298,621.9545,486.4571,612,486.1778,602.0455,486.2811,592.0909,485.8138,582.1364,486.9147,572.1818,487.2396,562.2273,487.0264,552.2727,487.1949,542.3182,486.3633,532.3636,486.5872,522.4091,486.1124,512.4545,486.784,502.5,486.7468,492.5455,487.0524,482.5909,486.2703,472.6364,486.3656,462.6818,486.9435,452.7273,487.0673,442.7727,485.9875,432.8182,486.3061,422.8636,486.6493,412.9091,485.8892,402.9545,486.8534,393,486.5,393.258,486.5,392.8992,476.5714,393.1422,466.6429,393.7287,456.7143,392.6871,446.7857,393.315,436.8571,393.2856,426.9286,393.1158,417,393.1409,407.0714,393.1135,397.1429,392.3758,387.2143,392.5992,377.2857,392.5385,367.3571,393.0638,357.4286,393.0881,347.5,393.1617,337.5714,392.709,327.6429,392.9325,317.7143,392.8798,307.7857,393.5769,297.8571,393.4266,287.9286,392.5145,278,392.9271,268.0714,392.4228,258.1429,393.2884,248.2143,393.6085,238.2857,393.5446,228.3571,392.5644,218.4286,393,208.5" style="stroke:#000000;stroke-width:1.5;"/><path d="M393,232.1094 L393,232.3896 L403.0909,231.5569 L413.1818,232.3671 L423.2727,232.6423 L433.3636,231.1582 L443.4545,232.0058 L453.5455,231.5407 L463.6364,231.598 L473.7273,232.0185 L483.8182,231.1875 L493.9091,232.8476 L504,232.1094 " fill="#FFFFFF" style="stroke:#000000;stroke-width:1.5;"/><text fill="#000000" font-family="sans-serif" font-size="14" font-weight="bold" lengthAdjust="spacing" textLength="98" x="397" y="225.0332">Public Memos</text><!--MD5=[aa67b594d9c629de74c234d94f00fd81]
cluster Batch--><polygon fill="#FFFFFF" points="40,536.5,40,536.7102,49.2,536.0857,58.4,536.6933,67.6,536.8997,76.8,535.7866,86,536.5,85.9752,536.4926,87.2637,541.1815,88.6774,545.9074,90.1782,550.6592,91.3791,555.322,93,560.1094,93,560.663,102.9167,559.4791,112.8333,559.9116,122.75,560.5413,132.6667,560.0236,142.5833,560.1776,152.5,560.0774,162.4167,560.2879,172.3333,560.3485,182.25,560.6951,192.1667,560.7804,202.0833,560.7886,212,560.364,221.9167,560.573,231.8333,560.8116,241.75,559.3882,251.6667,560.7879,261.5833,559.8129,271.5,560.6432,281.4167,559.6144,291.3333,560.0409,301.25,560.851,311.1667,560.0606,321.0833,560.2147,331,560.448,340.9167,560.5256,350.8333,560.1055,360.75,560.3966,370.6667,559.537,380.5833,560.3938,390.5,560.6576,400.4167,560.5539,410.3333,560.7224,420.25,559.6263,430.1667,559.4572,440.0833,559.488,450,560.0505,459.9167,559.9128,469.8333,560.7908,479.75,559.9347,489.6667,559.7663,499.5833,560.3376,509.5,559.4425,519.4167,559.5902,529.3333,560.7583,539.25,560.545,549.1667,560.8439,559.0833,559.7876,569,560.1094,569.3192,560.1094,569.5904,570.4861,568.5276,580.8628,568.9041,591.2396,569.126,601.6163,569.6518,611.9931,568.9958,622.3698,569.4626,632.7465,568.4462,643.1233,569,653.5,569,652.8227,559.0189,654.0036,549.0377,652.7831,539.0566,654.009,529.0755,653.7066,519.0943,653.2321,509.1132,653.1462,499.1321,653.9588,489.1509,653.2007,479.1698,654.0919,469.1887,652.9473,459.2075,654.1174,449.2264,653.9843,439.2453,653.745,429.2642,653.5472,419.283,654.2266,409.3019,654.1136,399.3208,653.6693,389.3396,653.7682,379.3585,653.3697,369.3774,654.2165,359.3962,653.6549,349.4151,653.6726,339.434,652.8916,329.4528,653.0948,319.4717,654.0307,309.4906,653.9298,299.5094,653.4571,289.5283,653.1778,279.5472,653.2811,269.566,652.8138,259.5849,653.9147,249.6038,654.2396,239.6226,654.0264,229.6415,654.1949,219.6604,653.3633,209.6792,653.5872,199.6981,653.1124,189.717,653.784,179.7358,653.7468,169.7547,654.0524,159.7736,653.2703,149.7925,653.3656,139.8113,653.9435,129.8302,654.0673,119.8491,652.9875,109.8679,653.3061,99.8868,653.6493,89.9057,652.8892,79.9245,653.8534,69.9434,653.758,59.9623,653.3992,49.9811,653.6422,40,653.5,40.7287,653.5,39.6871,643.75,40.315,634,40.2856,624.25,40.1158,614.5,40.1409,604.75,40.1135,595,39.3758,585.25,39.5992,575.5,39.5385,565.75,40.0638,556,40.0881,546.25,40,536.5" style="stroke:#000000;stroke-width:1.5;"/><path d="M40,560.1094 L40,560.3896 L50.6,559.5569 L61.2,560.3671 L71.8,560.6423 L82.4,559.1582 L93,560.1094 " fill="#FFFFFF" style="stroke:#000000;stroke-width:1.5;"/><text fill="#000000" font-family="sans-serif" font-size="14" font-weight="bold" lengthAdjust="spacing" textLength="40" x="44" y="553.0332">Batch</text><!--MD5=[7468467f3b6b392f1d176d828c753b77]
entity db--><path d="M249.5,416 L249.5,416 L249.547,416.0807 L251.3917,414.6846 L253.512,413.7617 L255.5426,412.6847 L257.2779,411.101 L259.4219,410.2188 L259.4159,410.1847 L261.4232,409.6766 L263.4605,409.3399 L265.5186,409.1225 L267.5049,408.4942 L269.5918,408.4414 L269.6168,408.6862 L271.895,407.9245 L274.2461,407.8774 L276.6062,407.9175 L278.9145,407.4504 L281.25,407.25 L281.2519,407.2803 L283.5808,407.0913 L285.9182,407.0401 L288.2515,406.9225 L290.5927,406.9317 L292.9082,406.5273 L292.9191,406.8254 L294.9532,406.7548 L296.9803,406.492 L299.0177,406.5106 L301.0555,406.5424 L303.0781,406.1563 L303.0731,405.8358 L305.0672,406.4265 L307.0448,405.962 L309.035,406.2997 L311.0122,405.8113 L313,406 L313,406 L312.9995,405.9696 L314.9896,406.3608 L316.9684,406.0408 L318.9539,406.1405 L320.9399,406.2755 L322.9219,406.1563 L322.9286,406.3411 L324.9558,406.2287 L326.9945,406.4323 L329.0146,406.1247 L331.0624,406.5794 L333.0918,406.5273 L333.1069,406.7705 L335.4357,406.8691 L337.7719,407.0883 L340.0734,406.7466 L342.4004,406.8162 L344.75,407.25 L344.7219,406.9753 L347.079,407.4622 L349.4044,407.6397 L351.7757,408.2661 L354.0687,408.1259 L356.4082,408.4414 L356.382,408.2912 L358.4597,408.8968 L360.4251,408.8604 L362.4704,409.2805 L364.5938,410.1474 L366.5781,410.2188 L366.6756,410.3861 L368.7268,411.6571 L370.4749,412.4077 L372.6027,413.8101 L374.6477,415.0705 L376.5,416 L376.0801,416 L376.4148,424.8438 L376.612,433.6875 L377.0793,442.5313 L376.4963,451.375 L376.5,460.2188 L376.5,460.2188 L376.6035,460.3964 L374.3917,461.1623 L372.3797,462.2712 L370.6596,463.8809 L368.4021,464.5684 L366.5781,466 L366.6171,466.2228 L364.56,466.4459 L362.4897,466.5936 L360.4491,466.9115 L358.4773,467.6227 L356.4082,467.7773 L356.3947,467.645 L354.1033,468.2773 L351.7199,468.0095 L349.4412,468.7652 L347.1035,468.9446 L344.75,468.9688 L344.7567,469.0774 L342.4197,469.1342 L340.1067,469.5801 L337.7719,469.6745 L335.4281,469.622 L333.0918,469.6914 L333.0961,469.8105 L331.0557,469.7078 L329.0354,470.1581 L326.9924,469.9828 L324.9587,470.0649 L322.9219,470.0625 L322.9176,469.7922 L320.9347,469.9137 L318.9568,470.3609 L316.9718,470.3472 L314.9841,470.1684 L313,470.2188 L313,470.2188 L312.9977,470.0756 L311.0141,470.0902 L309.0264,469.8513 L307.0498,470.3093 L305.0677,470.4224 L303.0781,470.0625 L303.0867,470.2963 L301.0554,470.2969 L299.0079,469.8533 L296.9776,469.8786 L294.9359,469.5935 L292.9082,469.6914 L292.916,469.8174 L290.5833,469.6563 L288.2601,469.6474 L285.907,469.1559 L283.5779,469.0537 L281.25,468.9688 L281.27,469.1648 L278.944,468.9813 L276.5636,468.2656 L274.2463,468.1682 L271.9302,468.0816 L269.5918,467.7773 L269.5451,467.5099 L267.5849,467.5766 L265.5436,467.1794 L263.4821,466.6668 L261.4667,466.4177 L259.4219,466 L259.5849,466.2798 L257.3675,464.7236 L255.5236,463.8085 L253.5327,462.6409 L251.5103,461.4195 L249.5,460.2188 L249.6253,460.2188 L249.6009,451.375 L248.9452,442.5313 L249.1437,433.6875 L249.0897,424.8438 L249.5,416 " fill="#FFFFFF" style="stroke:#000000;stroke-width:1.5;"/><path d="M249.5,416 L249.5,416 L249.547,416.0807 L251.3917,416.9971 L253.512,418.3867 L255.5426,419.6222 L257.2779,420.351 L259.4219,421.7813 L259.4159,421.7472 L261.4232,421.95 L263.4605,422.3243 L265.5186,422.8178 L267.5049,422.9004 L269.5918,423.5586 L269.6168,423.8034 L271.895,423.5182 L274.2461,423.9477 L276.6062,424.4644 L278.9145,424.4738 L281.25,424.75 L281.2519,424.7803 L283.5808,424.8804 L285.9182,425.1183 L288.2515,425.2897 L290.5927,425.5879 L292.9082,425.4727 L292.9191,425.7707 L294.9532,425.8486 L296.9803,425.7342 L299.0177,425.9012 L301.0555,426.0814 L303.0781,425.8438 L303.0731,425.5233 L305.0672,426.1765 L307.0448,425.7745 L309.035,426.1747 L311.0122,425.7488 L313,426 L313,426 L312.9995,425.9696 L314.9896,426.2983 L316.9684,425.9158 L318.9539,425.953 L320.9399,426.0255 L322.9219,425.8438 L322.9286,426.0286 L324.9558,425.7678 L326.9945,425.8229 L329.0146,425.3669 L331.0624,425.6732 L333.0918,425.4727 L333.1069,425.7158 L335.4357,425.5253 L337.7719,425.4555 L340.0734,424.8248 L342.4004,424.6052 L344.75,424.75 L344.7219,424.4753 L347.079,424.4857 L349.4044,424.1865 L351.7757,424.3364 L354.0687,423.7196 L356.4082,423.5586 L356.382,423.4084 L358.4597,423.3031 L360.4251,422.5557 L362.4704,422.2649 L364.5938,422.4208 L366.5781,421.7813 L366.6756,421.9486 L368.7268,420.9071 L370.4749,419.3452 L372.6027,418.4351 L374.6477,417.383 L376.5,416 " fill="none" style="stroke:#000000;stroke-width:1.5;"/><text fill="#000000" font-family="sans-serif" font-size="14" lengthAdjust="spacing" textLength="56" x="259.5" y="444.5332">Postgres</text><text fill="#000000" font-family="sans-serif" font-size="14" lengthAdjust="spacing" textLength="107" x="259.5" y="462.1426">using Cloud SQL</text><!--MD5=[4541fb81c80c07473fe4b07432ef0971]
entity app--><polygon fill="#FFFFFF" points="56,254.5,56.0495,254.5495,57.9023,252.4023,60.0456,250.5456,62.0942,248.5942,63.8319,246.3319,66,244.5,66,244.4223,75.6364,244.0735,85.2727,244.1165,94.9091,244.4318,104.5455,243.8086,114.1818,245.0536,123.8182,243.8697,133.4545,244.3022,143.0909,244.9319,152.7273,244.4142,162.3636,244.5682,172,244.5,171.9681,244.5,172.1785,253.7031,172.2391,262.9063,172.5857,272.1094,172.6711,281.3125,172.6793,290.5156,172,299.7188,172.06,299.7788,170.1093,301.828,168.1655,303.8843,165.83,305.5488,164.1599,307.8787,162,309.7188,162,309.4222,152.3636,310.2526,142.7273,309.2237,133.0909,309.6503,123.4545,310.4604,113.8182,309.67,104.1818,309.8241,94.5455,310.0574,84.9091,310.135,75.2727,309.7148,65.6364,310.006,56,309.7188,55.4276,309.7188,56.2844,300.5156,56.5482,291.3125,56.4445,282.1094,56.613,272.9063,55.5169,263.7031,56,254.5" style="stroke:#000000;stroke-width:1.5;"/><path d="M162,254.5 L162.0661,254.5661 L163.8698,252.3698 L166.0607,250.5607 L168.1256,248.6256 L169.7758,246.2758 L172,244.5 " fill="#FFFFFF" style="stroke:#000000;stroke-width:1.5;"/><path d="M56,254.5 L56,254.7802 L65.6364,253.9476 L75.2727,254.7577 L84.9091,255.0329 L94.5455,253.5488 L104.1818,254.3964 L113.8182,253.9313 L123.4545,253.9887 L133.0909,254.4091 L142.7273,253.5782 L152.3636,255.2382 L162,254.5 " fill="#FFFFFF" style="stroke:#000000;stroke-width:1.5;"/><path d="M162,254.5 L162.2802,254.5 L161.4476,263.7031 L162.2577,272.9063 L162.5329,282.1094 L161.0488,291.3125 L161.8964,300.5156 L162,309.7188 " fill="#FFFFFF" style="stroke:#000000;stroke-width:1.5;"/><text fill="#000000" font-family="sans-serif" font-size="14" lengthAdjust="spacing" textLength="76" x="71" y="279.0332">APP(Vue.js)</text><text fill="#000000" font-family="sans-serif" font-size="14" lengthAdjust="spacing" textLength="67" x="71" y="296.6426">using GAE</text><!--MD5=[e2307af040e3f87d22824e7603ca28ec]
entity api--><polygon fill="#FFFFFF" points="207.5,254.5,207.5495,254.5495,209.4023,252.4023,211.5456,250.5456,213.5942,248.5942,215.3319,246.3319,217.5,244.5,217.5,244.4223,227.1429,244.0735,236.7857,244.1165,246.4286,244.4318,256.0714,243.8086,265.7143,245.0536,275.3571,243.8697,285,244.3022,294.6429,244.9319,304.2857,244.4142,313.9286,244.5682,323.5714,244.4681,333.2143,244.6785,342.8571,244.7391,352.5,244.5,353.0857,244.5,353.1711,253.7031,353.1793,262.9063,352.7546,272.1094,352.9636,281.3125,353.2022,290.5156,352.5,299.7188,352.33,299.5488,350.6599,301.8787,348.4301,303.6489,346.6258,305.8446,344.3833,307.6021,342.5,309.7188,342.5,309.6503,332.8571,310.4604,323.2143,309.67,313.5714,309.8241,303.9286,310.0574,294.2857,310.135,284.6429,309.7148,275,310.006,265.3571,309.1463,255.7143,310.0031,246.0714,310.2669,236.4286,310.1633,226.7857,310.3318,217.1429,309.2357,207.5,309.7188,206.8478,309.7188,206.8786,300.5156,207.4411,291.3125,207.3035,282.1094,208.1814,272.9063,207.3253,263.7031,207.5,254.5" style="stroke:#000000;stroke-width:1.5;"/><path d="M342.5,254.5 L342.5661,254.5661 L344.3698,252.3698 L346.5607,250.5607 L348.6256,248.6256 L350.2758,246.2758 L352.5,244.5 " fill="#FFFFFF" style="stroke:#000000;stroke-width:1.5;"/><path d="M207.5,254.5 L207.5,254.7802 L217.1429,253.9476 L226.7857,254.7577 L236.4286,255.0329 L246.0714,253.5488 L255.7143,254.3964 L265.3571,253.9313 L275,253.9887 L284.6429,254.4091 L294.2857,253.5782 L303.9286,255.2382 L313.5714,253.6596 L323.2143,254.2363 L332.8571,255.0759 L342.5,254.5 " fill="#FFFFFF" style="stroke:#000000;stroke-width:1.5;"/><path d="M342.5,254.5 L342.7802,254.5 L341.9476,263.7031 L342.7577,272.9063 L343.0329,282.1094 L341.5488,291.3125 L342.3964,300.5156 L342.5,309.7188 " fill="#FFFFFF" style="stroke:#000000;stroke-width:1.5;"/><text fill="#000000" font-family="sans-serif" font-size="14" lengthAdjust="spacing" textLength="50" x="222.5" y="279.0332">API(Go)</text><text fill="#000000" font-family="sans-serif" font-size="14" lengthAdjust="spacing" textLength="105" x="222.5" y="296.6426">using Cloud Run</text><!--MD5=[751647576a4a38dfde2198439870d4b2]
entity gcs--><polygon fill="#FFFFFF" points="623.5,415.5,623.5495,415.5495,625.4023,413.4023,627.5456,411.5456,629.5942,409.5942,631.3319,407.3319,633.5,405.5,633.5,405.4223,643.4375,405.0735,653.375,405.1165,663.3125,405.4318,673.25,404.8086,683.1875,406.0536,693.125,404.8697,703.0625,405.3022,713,405.9319,722.9375,405.4142,732.875,405.5682,742.8125,405.4681,752.75,405.6785,762.6875,405.7391,772.625,406.0857,782.5625,406.1711,792.5,405.5,793.1793,405.5,792.7546,414.7031,792.9636,423.9063,793.2022,433.1094,791.7788,442.3125,793.1785,451.5156,792.5,460.7188,792.4301,460.6489,790.6258,462.8446,788.3833,464.6021,786.4839,466.7026,784.6748,468.8935,782.5,470.7188,782.5,470.67,772.5625,470.8241,762.625,471.0574,752.6875,471.135,742.75,470.7148,732.8125,471.006,722.875,470.1463,712.9375,471.0031,703,471.2669,693.0625,471.1633,683.125,471.3318,673.1875,470.2357,663.25,470.0666,653.3125,470.0973,643.375,470.6599,633.4375,470.5222,623.5,470.7188,624.1814,470.7188,623.3253,461.5156,623.1569,452.3125,623.7283,443.1094,622.8332,433.9063,622.9809,424.7031,623.5,415.5" style="stroke:#000000;stroke-width:1.5;"/><path d="M782.5,415.5 L782.5661,415.5661 L784.3698,413.3698 L786.5607,411.5607 L788.6256,409.6256 L790.2758,407.2758 L792.5,405.5 " fill="#FFFFFF" style="stroke:#000000;stroke-width:1.5;"/><path d="M623.5,415.5 L623.5,415.7802 L633.4375,414.9476 L643.375,415.7577 L653.3125,416.0329 L663.25,414.5488 L673.1875,415.3964 L683.125,414.9313 L693.0625,414.9887 L703,415.4091 L712.9375,414.5782 L722.875,416.2382 L732.8125,414.6596 L742.75,415.2363 L752.6875,416.0759 L762.625,415.3856 L772.5625,415.591 L782.5,415.5 " fill="#FFFFFF" style="stroke:#000000;stroke-width:1.5;"/><path d="M782.5,415.5 L782.7802,415.5 L781.9476,424.7031 L782.7577,433.9063 L783.0329,443.1094 L781.5488,452.3125 L782.3964,461.5156 L782.5,470.7188 " fill="#FFFFFF" style="stroke:#000000;stroke-width:1.5;"/><text fill="#000000" font-family="sans-serif" font-size="14" lengthAdjust="spacing" textLength="69" x="638.5" y="440.0332">HTML/CSS</text><text fill="#000000" font-family="sans-serif" font-size="14" lengthAdjust="spacing" textLength="129" x="638.5" y="457.6426">using Cloud Storage</text><!--MD5=[a7ce4f16542a5865a4d15f453275c7da]
entity gce--><polygon fill="#FFFFFF" points="409.5,254.5,409.5495,254.5495,411.4023,252.4023,413.5456,250.5456,415.5942,248.5942,417.3319,246.3319,419.5,244.5,419.5,244.4223,429.4444,244.0735,439.3889,244.1165,449.3333,244.4318,459.2778,243.8086,469.2222,245.0536,479.1667,243.8697,489.1111,244.3022,499.0556,244.9319,509,244.4142,518.9444,244.5682,528.8889,244.4681,538.8333,244.6785,548.7778,244.7391,558.7222,245.0857,568.6667,245.1711,578.6111,245.1793,588.5556,244.7546,598.5,244.5,598.9636,244.5,599.2022,253.7031,597.7788,262.9063,599.1785,272.1094,598.2035,281.3125,599.0338,290.5156,598.5,299.7188,598.3833,299.6021,596.4839,301.7026,594.6748,303.8935,592.4885,305.7073,590.5248,307.7436,588.5,309.7188,588.5,310.0574,578.5556,310.135,568.6111,309.7148,558.6667,310.006,548.7222,309.1463,538.7778,310.0031,528.8333,310.2669,518.8889,310.1633,508.9444,310.3318,499,309.2357,489.0556,309.0666,479.1111,309.0973,469.1667,309.6599,459.2222,309.5222,449.2778,310.4002,439.3333,309.5441,429.3889,309.3757,419.4444,309.947,409.5,309.7188,408.8332,309.7188,408.9809,300.5156,410.149,291.3125,409.9357,282.1094,410.2345,272.9063,409.1782,263.7031,409.5,254.5" style="stroke:#000000;stroke-width:1.5;"/><path d="M588.5,254.5 L588.5661,254.5661 L590.3698,252.3698 L592.5607,250.5607 L594.6256,248.6256 L596.2758,246.2758 L598.5,244.5 " fill="#FFFFFF" style="stroke:#000000;stroke-width:1.5;"/><path d="M409.5,254.5 L409.5,254.7802 L419.4444,253.9476 L429.3889,254.7577 L439.3333,255.0329 L449.2778,253.5488 L459.2222,254.3964 L469.1667,253.9313 L479.1111,253.9887 L489.0556,254.4091 L499,253.5782 L508.9444,255.2382 L518.8889,253.6596 L528.8333,254.2363 L538.7778,255.0759 L548.7222,254.3856 L558.6667,254.591 L568.6111,254.4574 L578.5556,254.738 L588.5,254.5 " fill="#FFFFFF" style="stroke:#000000;stroke-width:1.5;"/><path d="M588.5,254.5 L588.7802,254.5 L587.9476,263.7031 L588.7577,272.9063 L589.0329,282.1094 L587.5488,291.3125 L588.3964,300.5156 L588.5,309.7188 " fill="#FFFFFF" style="stroke:#000000;stroke-width:1.5;"/><text fill="#000000" font-family="sans-serif" font-size="14" lengthAdjust="spacing" textLength="149" x="424.5" y="279.0332">memo exposer program</text><text fill="#000000" font-family="sans-serif" font-size="14" lengthAdjust="spacing" textLength="143" x="424.5" y="296.6426">using Compute Engine</text><!--MD5=[637ad760a824b4f188254bdb9f14c9f0]
entity scheduler--><polygon fill="#FFFFFF" points="56,582.5,56.0495,582.5495,57.9023,580.4023,60.0456,578.5456,62.0942,576.5942,63.8319,574.3319,66,572.5,66,572.4223,76.1429,572.0735,86.2857,572.1165,96.4286,572.4318,106.5714,571.8086,116.7143,573.0536,126.8571,571.8697,137,572.3022,147.1429,572.9319,157.2857,572.4142,167.4286,572.5682,177.5714,572.4681,187.7143,572.6785,197.8571,572.7391,208,572.5,208.5857,572.5,208.6711,581.7031,208.6793,590.9063,208.2546,600.1094,208.4636,609.3125,208.7022,618.5156,208,627.7188,207.83,627.5488,206.1599,629.8787,203.9301,631.6489,202.1258,633.8446,199.8833,635.6021,198,637.7188,198,637.6503,187.8571,638.4604,177.7143,637.67,167.5714,637.8241,157.4286,638.0574,147.2857,638.135,137.1429,637.7148,127,638.006,116.8571,637.1463,106.7143,638.0031,96.5714,638.2669,86.4286,638.1633,76.2857,638.3318,66.1429,637.2357,56,637.7188,55.3478,637.7188,55.3786,628.5156,55.9411,619.3125,55.8035,610.1094,56.6814,600.9063,55.8253,591.7031,56,582.5" style="stroke:#000000;stroke-width:1.5;"/><path d="M198,582.5 L198.0661,582.5661 L199.8698,580.3698 L202.0607,578.5607 L204.1256,576.6256 L205.7758,574.2758 L208,572.5 " fill="#FFFFFF" style="stroke:#000000;stroke-width:1.5;"/><path d="M56,582.5 L56,582.7802 L66.1429,581.9476 L76.2857,582.7577 L86.4286,583.0329 L96.5714,581.5488 L106.7143,582.3964 L116.8571,581.9313 L127,581.9887 L137.1429,582.4091 L147.2857,581.5782 L157.4286,583.2382 L167.5714,581.6596 L177.7143,582.2363 L187.8571,583.0759 L198,582.5 " fill="#FFFFFF" style="stroke:#000000;stroke-width:1.5;"/><path d="M198,582.5 L198.2802,582.5 L197.4476,591.7031 L198.2577,600.9063 L198.5329,610.1094 L197.0488,619.3125 L197.8964,628.5156 L198,637.7188 " fill="#FFFFFF" style="stroke:#000000;stroke-width:1.5;"/><text fill="#000000" font-family="sans-serif" font-size="14" lengthAdjust="spacing" textLength="105" x="71" y="607.0332">Cloud Scheduler</text><text fill="#000000" font-family="sans-serif" font-size="14" lengthAdjust="spacing" textLength="112" x="71" y="624.6426">execute am 00:00</text><!--MD5=[b10ce2a5dc799e58e897864a51368981]
entity pubsub--><polygon fill="#FFFFFF" points="243.5,591,243.5495,591.0495,245.4023,588.9023,247.5456,587.0456,249.5942,585.0942,251.3319,582.8319,253.5,581,253.5,580.9223,263.5833,580.5735,273.6667,580.6165,283.75,580.9318,293.8333,580.3086,303.9167,581.5536,314,580.3697,324.0833,580.8022,334.1667,581.4319,344.25,580.9142,354.3333,581.0682,364.4167,580.9681,374.5,581,374.5595,581,374.5797,588.5219,374.6952,596.0438,374.7237,603.5656,374.7264,611.0875,374.5,618.6094,374.56,618.6694,372.6093,620.7186,370.6655,622.7749,368.33,624.4394,366.6599,626.7693,364.5,628.6094,364.5,628.3129,354.4167,629.1432,344.3333,628.1144,334.25,628.5409,324.1667,629.351,314.0833,628.5606,304,628.7147,293.9167,628.948,283.8333,629.0256,273.75,628.6055,263.6667,628.8966,253.5833,628.037,243.5,628.6094,243.5948,628.6094,243.6827,621.0875,243.6482,613.5656,243.7043,606.0438,243.339,598.5219,243.5,591" style="stroke:#000000;stroke-width:1.5;"/><path d="M364.5,591 L364.5661,591.0661 L366.3698,588.8698 L368.5607,587.0607 L370.6256,585.1256 L372.2758,582.7758 L374.5,581 " fill="#FFFFFF" style="stroke:#000000;stroke-width:1.5;"/><path d="M243.5,591 L243.5,591.2802 L253.5833,590.4476 L263.6667,591.2577 L273.75,591.5329 L283.8333,590.0488 L293.9167,590.8964 L304,590.4313 L314.0833,590.4887 L324.1667,590.9091 L334.25,590.0782 L344.3333,591.7382 L354.4167,590.1596 L364.5,591 " fill="#FFFFFF" style="stroke:#000000;stroke-width:1.5;"/><path d="M364.5,591 L364.5934,591 L364.3159,598.5219 L364.5859,606.0438 L364.6776,613.5656 L364.1829,621.0875 L364.5,628.6094 " fill="#FFFFFF" style="stroke:#000000;stroke-width:1.5;"/><text fill="#000000" font-family="sans-serif" font-size="14" lengthAdjust="spacing" textLength="91" x="258.5" y="615.5332">Cloud PubSub</text><!--MD5=[f12e8f6bacd68d4d653a88d9b8ecc056]
entity function--><polygon fill="#FFFFFF" points="409.5,591,409.5495,591.0495,411.4023,588.9023,413.5456,587.0456,415.5942,585.0942,417.3319,582.8319,419.5,581,419.5,580.9223,429.7308,580.5735,439.9615,580.6165,450.1923,580.9318,460.4231,580.3086,470.6538,581.5536,480.8846,580.3697,491.1154,580.8022,501.3462,581.4319,511.5769,580.9142,521.8077,581.0682,532.0385,580.9681,542.2692,581.1785,552.5,581,552.5797,581,552.6952,588.5219,552.7237,596.0438,552.7264,603.5656,552.5849,611.0875,552.5,618.6094,552.6093,618.7186,550.6655,620.7749,548.33,622.4394,546.6599,624.7693,544.4301,626.5395,542.5,628.6094,542.5,629.1432,532.2692,628.1144,522.0385,628.5409,511.8077,629.351,501.5769,628.5606,491.3462,628.7147,481.1154,628.948,470.8846,629.0256,460.6538,628.6055,450.4231,628.8966,440.1923,628.037,429.9615,628.8938,419.7308,629.1576,409.5,628.6094,409.6482,628.6094,409.7043,621.0875,409.339,613.5656,409.2826,606.0438,409.2929,598.5219,409.5,591" style="stroke:#000000;stroke-width:1.5;"/><path d="M542.5,591 L542.5661,591.0661 L544.3698,588.8698 L546.5607,587.0607 L548.6256,585.1256 L550.2758,582.7758 L552.5,581 " fill="#FFFFFF" style="stroke:#000000;stroke-width:1.5;"/><path d="M409.5,591 L409.5,591.2802 L419.7308,590.4476 L429.9615,591.2577 L440.1923,591.5329 L450.4231,590.0488 L460.6538,590.8964 L470.8846,590.4313 L481.1154,590.4887 L491.3462,590.9091 L501.5769,590.0782 L511.8077,591.7382 L522.0385,590.1596 L532.2692,590.7363 L542.5,591 " fill="#FFFFFF" style="stroke:#000000;stroke-width:1.5;"/><path d="M542.5,591 L542.5934,591 L542.3159,598.5219 L542.5859,606.0438 L542.6776,613.5656 L542.1829,621.0875 L542.5,628.6094 " fill="#FFFFFF" style="stroke:#000000;stroke-width:1.5;"/><text fill="#000000" font-family="sans-serif" font-size="14" lengthAdjust="spacing" textLength="103" x="424.5" y="615.5332">Cloud Functions</text><!--MD5=[23555a4f9c8a267cdfd801ad53ceaf15]
entity browser--><polygon fill="#F8F8F8" points="507.0442,15.9459,505.8715,17.5482,504.4845,19.8951,502.5008,21.4767,500.4163,22.3415,498.7542,22.4166,496.618,21.3349,494.6023,20.6283,493.0724,19.1936,492.2699,17.5511,491.7939,16.2433,491.3277,14.5351,490.5709,13.0651,491.1525,11.6298,491.662,10.0576,493.574,8.8142,494.9192,7.2008,496.5843,6.665,498.5637,6.2037,501.1021,6.4778,502.4924,7.1335,504.1089,7.4307,506.0743,9.4443,506.7595,11.5701,507.0571,13.0206,506.72,15.4108" style="stroke:#383838;stroke-width:1.5;"/><path d="M499,22 L499.1868,22 L498.6317,27.4 L499.1718,32.8 L499.3553,38.2 L498.3659,43.6 L499,49 M486,30 L486,29.9309 L491.2,29.6209 L496.4,29.6591 L501.6,29.9394 L506.8,29.3854 L512,30 M499,49 L499.3719,49.3223 L495.9766,51.6331 L493.6672,54.8849 L491.4901,58.2515 L488.5424,60.9501 L486,64 M499,49 L499.0458,49.0397 L501.5785,51.9814 L504.3199,55.1039 L506.9606,58.1392 L509.7934,61.341 L512,64 " fill="none" style="stroke:#383838;stroke-width:1.5;"/><text fill="#000000" font-family="sans-serif" font-size="14" lengthAdjust="spacing" textLength="50" x="474" y="81.0332">browser</text><!--MD5=[8004730a7664f8d24b8d903f681a22c3]
link browser to app--><path d="M473.89,48.89 L473.9049,48.9822 L471.5616,49.0805 L469.3059,49.7194 L467.0216,50.1823 L464.6436,50.0662 L462.3953,50.7515 L462.3893,50.7175 L459.7167,51.0334 L457.0745,51.5206 L454.4533,52.1271 L451.7595,52.3228 L449.1675,53.0939 L449.2142,53.3354 L446.1606,53.3907 L443.2435,54.1512 L440.343,54.9978 L437.3457,55.3437 L434.3993,55.9529 L434.4056,55.9826 L431.1732,56.6214 L427.9694,57.3953 L424.7519,58.104 L421.5606,58.937 L418.2836,59.3647 L418.3509,59.6552 L414.8977,60.4589 L411.401,61.0751 L407.9679,61.9656 L404.5378,62.869 L401.0133,63.3651 L400.9345,63.0544 L397.4411,64.5824 L393.6881,65.0873 L390.1325,66.37 L386.3736,66.8518 L382.7813,67.99 L382.7732,67.9607 L379.0695,69.3647 L375.1752,70.0834 L371.3934,71.2064 L367.621,72.3634 L363.7805,73.2755 L363.8346,73.4524 L359.8647,74.4703 L355.9871,75.7904 L351.9601,76.6214 L348.156,78.182 L344.2038,79.2575 L344.2797,79.489 L342.2765,80.0979 L340.3111,80.8217 L338.1703,81.0115 L336.1581,81.5928 L334.2596,82.5209 L334.1697,82.2598 L332.248,83.1864 L330.2249,83.8187 L328.3488,84.8778 L326.2217,85.2083 L324.2439,85.9719 L324.192,85.8285 L322.2658,86.7959 L320.1177,87.1505 L318.1274,87.9408 L316.2914,89.1576 L314.1806,89.615 L314.2495,89.7959 L312.2794,90.688 L310.095,91.0172 L308.179,92.0514 L306.2045,92.932 L304.0938,93.4546 L304.0157,93.2597 L302.0607,94.2233 L300.0802,95.1229 L298.1499,96.148 L296.0242,96.6855 L294.0077,97.4954 L294.0877,97.6848 L291.8998,98.1179 L289.8661,98.9166 L288.058,100.2494 L285.8348,100.5989 L283.9464,101.7417 L284.0384,101.9484 L281.9813,102.7169 L279.893,103.4155 L277.875,104.2719 L276.0194,105.4931 L273.934,106.1981 L273.8774,106.0777 L272.058,107.3704 L269.8537,107.8442 L268.087,109.249 L266.074,110.1297 L263.9945,110.8691 L264.043,110.9666 L262.0354,111.8659 L260.2013,113.1143 L258.2105,114.0473 L256.1541,114.8484 L254.1522,115.7591 L254.2077,115.8646 L252.181,116.7305 L250.412,118.0863 L248.3516,118.8881 L246.411,119.9178 L244.4311,120.8726 L244.2994,120.6365 L242.4282,121.7836 L240.7157,123.2153 L238.7787,124.2444 L236.7612,125.1292 L234.8553,126.2142 L234.7823,126.091 L232.9244,127.2453 L230.9373,128.1815 L229.3054,129.7172 L227.4978,130.9563 L225.4489,131.7883 L225.5737,131.9862 L223.7711,133.2118 L221.7314,134.0614 L219.9419,135.3078 L217.9868,136.2915 L216.2361,137.5995 L216.3066,137.7042 L214.4983,138.901 L212.7751,140.2242 L210.782,141.1464 L209.0066,142.392 L207.2409,143.6521 L207.3561,143.8121 L205.6375,145.1165 L203.6065,145.9867 L201.9386,147.3614 L200.277,148.7449 L198.4875,149.9508 L198.3217,149.7359 L196.886,151.385 L195.1626,152.6613 L193.3677,153.8449 L191.7361,155.2402 L190,156.5 L190.2142,156.7429 L187.9128,158.155 L186.1021,160.1236 L184.0982,161.8731 L182.053,163.5758 L180.0237,165.2965 L180.069,165.3398 L178.1976,167.2807 L176.098,169.0035 L174.3072,171.0214 L172.4252,172.9521 L170.7109,175.0431 L170.7328,175.0612 L169.0131,177.1579 L167.3103,179.2685 L165.4272,181.23 L163.7757,183.3831 L162.0708,185.492 L162.0277,185.4605 L160.6862,187.8237 L159.0406,189.9649 L157.1215,191.9066 L155.678,194.1953 L154.1125,196.395 L153.8978,196.2546 L152.7663,198.687 L151.4319,200.9868 L149.9546,203.1931 L148.1366,205.1765 L146.8451,207.5043 L147.0225,207.6095 L145.2477,209.5493 L144.2947,211.9767 L142.7903,214.077 L141.6282,216.3803 L140.2778,218.5719 L140.3717,218.6229 L139.2905,220.8277 L137.6535,222.7302 L136.9486,225.1395 L135.6609,227.232 L134.4197,229.3498 L134.5609,229.4206 L133.6888,231.5469 L132.366,233.447 L131.4055,235.5289 L130.3927,237.5845 L129.28,239.59 " fill="none" style="stroke:#383838;stroke-width:1.0;"/><polygon fill="#383838" points="126.99,244.41,127.0356,244.4632,128.3946,243.0222,130.0212,241.8928,131.5606,240.662,132.8135,239.0974,134.463,237.9948,134.4543,237.9704,133.3495,238.2405,132.2885,238.6337,131.258,239.1124,130.1226,239.2963,129.1341,239.8931,129.308,239.955,128.5566,238.7568,128.3127,237.7394,128.1308,236.7441,127.5886,235.6204,127.2359,234.5642,127.2586,234.5648,127.176,236.5331,127.197,238.504,127.168,240.4737,127.2343,242.4457,126.99,244.41" style="stroke:#383838;stroke-width:1.0;"/><text fill="#000000" font-family="sans-serif" font-size="13" lengthAdjust="spacing" textLength="187" x="288.5" y="128.9951">Authenticate &amp; Manage memos.</text><a href="https://app-dot-tag-mng-243823.appspot.com/" target="_top" title="https://app-dot-tag-mng-243823.appspot.com/" xlink:actuate="onRequest" xlink:href="https://app-dot-tag-mng-243823.appspot.com/" xlink:show="new" xlink:title="https://app-dot-tag-mng-243823.appspot.com/" xlink:type="simple"><text fill="#1D1D1D" font-family="sans-serif" font-size="13" lengthAdjust="spacing" text-decoration="underline" textLength="264" x="250" y="145.3467">https://app-dot-tag-mng-243823.appspot.com/</text></a><!--MD5=[a7d26c2f8cc5a6a8ad879278349a2334]
link app to api--><path d="M172.04,277 L172.04,277.0934 L178.072,276.8159 L184.104,277.0859 L190.136,277.1776 L196.168,276.6829 L202.2,277 " fill="none" style="stroke:#383838;stroke-width:1.0;"/><polygon fill="#383838" points="207.46,277,207.4885,277.064,205.6039,276.0738,203.8862,275.4589,202.1141,274.7217,200.1634,273.5827,198.46,273,198.4417,272.9817,199.1595,273.6995,199.9696,274.5096,200.8439,275.3839,201.497,276.037,202.46,277,202.5905,277.1305,201.5114,277.6514,200.8134,278.5534,200.1618,279.5018,199.2398,280.1798,198.46,281,198.4692,281.0208,200.2557,280.1903,202.0842,279.4544,203.8924,278.6728,205.7393,277.9784,207.46,277" style="stroke:#383838;stroke-width:1.0;"/><!--MD5=[1b9dbcfdb69d97b7ce5f2d963fc4ed75]
link api to db--><path d="M286.6,309.79 L286.8744,309.847 L288.158,319.79 L291.0501,330.0668 L293.4185,340.235 L294.0642,350.0456 L296.993,360.3301 L298.6365,370.3478 L300.7916,380.4716 L303.3021,390.6693 L305.49,400.8 " fill="none" style="stroke:#383838;stroke-width:1.0;"/><polygon fill="#383838" points="306.53,405.8,306.5985,405.8148,306.8124,403.8457,307.4278,401.9636,307.9124,400.0531,307.9673,398.0495,308.6171,396.1748,308.5954,396.1606,307.8775,397.0427,307.2688,397.9965,306.736,399.0001,305.9417,399.832,305.5137,400.9044,305.6149,401.0587,304.4525,400.108,303.5857,399.6079,302.7549,399.1627,301.7143,398.3977,300.7841,397.801,300.8026,397.8142,301.9246,399.3946,303.1308,401.0353,304.2964,402.6469,305.5394,404.3141,306.53,405.8" style="stroke:#383838;stroke-width:1.0;"/><!--MD5=[9ee00d4e8af5dde5febc85becf86840e]
link browser to gcs--><path d="M524.21,44.89 L524.211,44.9834 L526.8585,44.7333 L529.5116,45.0308 L532.1629,45.15 L534.8082,44.6828 L537.4618,45.0273 L537.4607,44.9928 L540.5432,44.9362 L543.6313,45.0536 L546.7232,45.292 L549.8018,45.1135 L552.8991,45.519 L552.9128,45.7646 L556.3486,45.4324 L559.8243,45.8174 L563.305,46.2899 L566.7572,46.2532 L570.2244,46.4844 L570.2269,46.5146 L574.0065,46.7819 L577.7974,47.1869 L581.5829,47.5254 L585.3788,47.9907 L589.1406,48.043 L589.1716,48.3396 L591.1643,48.5511 L593.1371,48.5712 L595.139,48.8714 L597.1424,49.1847 L599.1024,49.0821 L599.0641,48.7638 L601.188,49.6279 L603.1858,49.4441 L605.2795,50.0569 L607.2745,49.8494 L609.3503,50.3143 L609.3462,50.2841 L611.4945,50.9288 L613.5462,50.8689 L615.6549,51.2248 L617.7684,51.6155 L619.8473,51.7545 L619.8757,51.9373 L621.9889,52.0854 L624.1505,52.5459 L626.2336,52.501 L628.4339,53.2099 L630.5563,53.4177 L630.5982,53.6577 L632.767,53.9925 L634.9566,54.4465 L637.0495,54.3468 L639.2133,54.653 L641.4399,55.3188 L641.3869,55.0477 L643.6391,55.7239 L645.8316,56.0946 L648.1107,56.9083 L650.2419,56.9657 L652.4611,57.4727 L652.4286,57.3237 L654.707,58.0562 L656.8467,58.1518 L659.0849,58.7003 L661.4197,59.6919 L663.5827,59.8944 L663.6282,60.0826 L665.8964,60.7525 L668.023,60.8371 L670.3269,61.6549 L672.5922,62.3129 L674.7675,62.5987 L674.7132,62.3959 L676.9987,63.158 L679.2663,63.8536 L681.569,64.6798 L683.7357,64.9986 L685.9784,65.6008 L686.0367,65.7979 L688.1485,66.0277 L690.3729,66.638 L692.7618,67.8041 L694.8478,67.9469 L697.1782,68.9153 L697.2484,69.1303 L699.437,69.731 L701.6019,70.259 L703.8203,70.9511 L706.1628,72.0228 L708.3298,72.5574 L708.2847,72.4322 L710.6321,73.6018 L712.673,73.92 L715.0624,75.2062 L717.2556,75.9475 L719.3959,76.5419 L719.4361,76.6431 L721.5924,77.4297 L723.8925,78.5788 L726.0626,79.4004 L728.1785,80.0852 L730.3395,80.8837 L730.3873,80.9929 L732.4731,81.7735 L734.7806,83.0611 L736.8374,83.7752 L738.9973,84.7253 L741.1233,85.5978 L741.006,85.3542 L743.1625,86.4558 L745.4605,87.8509 L747.5584,88.8307 L749.5846,89.6617 L751.7103,90.6992 L751.6431,90.5727 L753.7352,91.7139 L755.7083,92.6313 L758.0085,94.164 L760.1468,95.3922 L762.0631,96.2027 L762.1816,96.4044 L764.2359,97.6531 L766.065,98.5185 L768.1317,99.7884 L770.0412,100.7906 L772.1448,102.1232 L772.2136,102.2291 L774.1592,103.4857 L776.1878,104.8701 L777.9531,105.8492 L779.9308,107.1552 L781.918,108.4758 L782.0333,108.6357 L783.951,110.0403 L785.5558,111.0109 L787.5242,112.4857 L789.4989,113.9693 L791.3457,115.2754 L791.1757,115.0637 L793.253,116.8501 L795.0354,118.2694 L796.7446,119.5973 L798.6212,121.1338 L800.3906,122.5368 L800.6069,122.7779 L802.0228,123.981 L803.9341,125.7363 L805.6505,127.2743 L807.325,128.7657 L809.0157,130.2751 L809.0602,130.3192 L810.6851,131.9566 L812.086,133.3716 L813.7901,135.0876 L815.4045,136.7146 L817.1837,138.5051 L817.205,138.5238 L818.7479,140.2782 L820.3073,142.0472 L821.6909,143.6617 L823.3002,145.4746 L824.8576,147.2417 L824.8152,147.2091 L826.489,149.25 L827.8646,151.0608 L828.9722,152.6649 L830.5458,154.6285 L832,156.5 L831.7876,156.356 L833.6955,158.9164 L835.4026,161.3406 L836.9684,163.6691 L838.1972,165.7692 L839.9469,168.2222 L840.1247,168.3267 L840.9877,170.3119 L842.6746,172.781 L843.8087,174.9254 L845.286,177.2714 L846.5745,179.5064 L846.6704,179.5535 L847.8356,181.7832 L848.4329,183.7338 L849.9826,186.1523 L850.9368,188.2783 L851.9386,190.4276 L852.0856,190.4851 L853.0793,192.6752 L853.6033,194.6818 L854.5048,196.8359 L855.3518,198.9687 L856.0947,201.0608 L856.1789,201.0851 L856.6951,203.1447 L857.5997,205.3163 L857.6366,207.2378 L858.7392,209.4665 L859.0985,211.481 L858.8258,211.4304 L859.2438,213.4936 L859.8789,215.5971 L860.2552,217.6526 L860.4089,219.6668 L861.0057,221.7632 L861.1889,221.7787 L861.2271,223.8111 L861.6739,225.8782 L861.8208,227.9198 L861.5,229.9218 L861.8718,231.9824 L861.6949,231.9804 L861.7905,234.028 L861.9821,236.0768 L861.9793,238.1233 L861.9102,240.169 L861.7525,242.2138 L861.6013,242.1984 L861.8241,244.306 L861.6131,246.3696 L861.1022,248.4027 L860.8076,250.4577 L860.7035,252.5321 L860.528,252.4999 L860.225,254.611 L859.9943,256.7353 L859.5196,258.8149 L858.9823,260.883 L858.7803,263.0126 L858.9901,263.0663 L858.0343,265.1056 L857.8999,267.355 L857.3192,269.4902 L856.7471,271.6276 L856.0386,273.7302 L856.3319,273.8234 L855.2335,275.903 L854.5094,278.1016 L854.1557,280.4178 L852.9821,282.4736 L852.5341,284.7598 L852.4365,284.7238 L851.7399,287.061 L850.878,289.3371 L849.8575,291.5548 L849.1467,293.8867 L848.3223,296.1767 L848.6286,296.302 L847.6164,298.6616 L846.1317,300.8278 L845.4366,303.3172 L844.2202,305.5933 L843.4589,308.0556 L843.4482,308.0509 L842.4863,310.5912 L841.446,313.0972 L839.9129,315.3864 L839.2545,318.0601 L837.9996,320.4717 L838.003,320.4733 L836.5755,322.9741 L835.4096,325.5955 L834.5317,328.3494 L833.3008,330.9408 L832,333.5 L831.9935,333.4966 L830.6344,335.4371 L830.0549,337.7913 L828.5723,339.6664 L827.3857,341.6985 L826.4912,343.8856 L826.4662,343.8692 L825.4145,346.0094 L824.128,347.996 L822.6162,349.8351 L821.2509,351.7701 L820.0111,353.7872 L820.0707,353.8335 L818.6165,355.7192 L816.9129,357.4113 L815.7766,359.5437 L814.3675,361.4644 L812.7113,363.1933 L812.6399,363.1294 L810.9757,364.8459 L809.7477,366.953 L807.9377,368.5391 L806.3372,370.3126 L804.7438,372.0925 L804.8371,372.187 L802.8453,373.5645 L801.5158,375.6124 L799.6487,377.1161 L798.1657,379.0086 L796.2601,380.4732 L796.1964,380.4015 L794.6111,382.1794 L792.5899,383.466 L791.0235,385.2652 L789.2935,386.88 L787.412,388.3241 L787.3207,388.2108 L785.7012,389.9115 L783.6283,391.0502 L781.8444,392.547 L780.3541,394.4078 L778.3514,395.6335 L778.5325,395.8779 L776.6775,397.1878 L774.6075,398.2074 L772.9802,399.8246 L770.9294,400.8701 L769.23,402.39 " fill="none" style="stroke:#383838;stroke-width:1.0;"/><polygon fill="#383838" points="765.03,405.33,765.0435,405.3987,766.936,404.814,768.9078,404.6323,770.8538,404.3193,772.7148,403.5748,774.6934,403.4276,774.6889,403.4021,773.5544,403.0931,772.4424,402.9127,771.3459,402.8217,770.1957,402.4225,769.1208,402.455,769.3026,402.4867,769.1083,401.3044,769.4449,400.2146,769.8462,399.1362,769.8707,397.992,770.0934,396.8824,770.1129,396.8941,769.0716,398.5664,768.1191,400.292,767.1237,401.9919,766.2101,403.7409,765.03,405.33" style="stroke:#383838;stroke-width:1.0;"/><text fill="#000000" font-family="sans-serif" font-size="13" lengthAdjust="spacing" textLength="132" x="864" y="274.4951">View exposed memos.</text><a href="http://www.dododo.site/" target="_top" title="http://www.dododo.site/" xlink:actuate="onRequest" xlink:href="http://www.dododo.site/" xlink:show="new" xlink:title="http://www.dododo.site/" xlink:type="simple"><text fill="#1D1D1D" font-family="sans-serif" font-size="13" lengthAdjust="spacing" text-decoration="underline" textLength="136" x="862" y="290.8467">http://www.dododo.site/</text></a><!--MD5=[014d5f421ec895d8ff0da19fb612a2d3]
link gce to db--><path d="M465.81,309.79 L465.9893,310.0054 L457.5023,315.9876 L450.0663,323.2323 L442.2881,330.066 L433.3843,335.5476 L425.9723,342.8211 L417.7204,349.0858 L409.8028,355.752 L402.1176,362.6973 L393.6316,368.6808 L386.7394,376.5787 L377.7752,381.9877 L370.1899,389.0531 L362.7728,396.3205 L354.45,402.5 " fill="none" style="stroke:#383838;stroke-width:1.0;"/><polygon fill="#383838" points="350.48,405.8,350.4991,405.8674,352.3375,405.1301,354.2879,404.7879,356.2018,404.317,357.9957,403.423,359.9557,403.1147,359.9534,403.0889,358.8161,402.8703,357.6907,402.7817,356.5736,402.7835,355.428,402.4738,354.3223,402.6005,354.5061,402.6173,354.2159,401.4547,354.4623,400.3411,354.7742,399.2335,354.7052,398.0911,354.8365,396.967,354.8569,396.9771,353.9556,398.7289,353.1473,400.5266,352.2941,402.3021,351.5264,404.1198,350.48,405.8" style="stroke:#383838;stroke-width:1.0;"/><text fill="#000000" font-family="sans-serif" font-size="13" lengthAdjust="spacing" textLength="150" x="426" y="355.9951">fetch exposed memo data</text><text fill="#000000" font-family="sans-serif" font-size="13" lengthAdjust="spacing" textLength="50" x="476" y="372.3467">per 3min</text><!--MD5=[1a3dd07eff079d498b692c002b817f71]
link gce to gce--><path d="M598.58,262.46 L598.5914,262.5527 L601.3582,262.6222 L604.1919,263.2352 L607.0038,263.6712 L609.744,263.5252 L612.5834,264.1848 L612.5744,264.1515 L614.7446,264.6017 L616.9604,265.2199 L619.2079,265.955 L621.3462,266.2874 L623.6375,267.1838 L623.8111,267.3582 L625.4124,268.9485 L627.5205,271.048 L629.6904,273.2096 L631.5006,275.0097 L633.5,277 L633.5225,277.0204 L631.825,278.8247 L630.2298,280.7218 L628.5852,282.5742 L627.0348,284.5119 L625.1775,286.1713 L625.2677,286.4555 L623.3828,287.0573 L621.4397,287.4757 L619.5818,288.1625 L617.7279,288.8619 L615.7475,289.1627 L615.697,288.8461 L613.3795,289.8459 L610.8957,289.8035 L608.5384,290.5533 L606.0508,290.4873 L603.67,291.09 " fill="none" style="stroke:#383838;stroke-width:1.0;"/><polygon fill="#383838" points="598.58,291.54,598.6027,291.6063,600.399,292.0469,602.3283,292.8762,604.2143,293.5789,605.9579,293.8654,607.8986,294.728,607.882,294.7082,606.9397,293.8929,606.0813,293.1778,605.2811,292.5324,604.2801,291.647,603.5604,291.0976,603.7019,291.2161,604.1254,290.0951,604.962,289.32,605.8491,288.5871,606.4428,287.6087,607.1908,286.7594,607.2018,286.7793,605.4635,287.7062,603.7754,288.7237,602.063,289.6974,600.3969,290.7546,598.58,291.54" style="stroke:#383838;stroke-width:1.0;"/><text fill="#000000" font-family="sans-serif" font-size="13" lengthAdjust="spacing" textLength="186" x="639.5" y="282.4951">HTML/CSS generated by HUGO</text><!--MD5=[13ee3ef9e9f7ec54f32c1408f2e9bd07]
link gce to gcs--><path d="M581.43,309.6 L581.4741,309.6824 L583.9765,310.8463 L586.7371,312.493 L589.4137,313.9825 L591.8137,314.9549 L594.5966,316.6431 L594.579,316.6134 L597.1024,318.0152 L599.7143,319.5671 L602.3877,321.2232 L604.8492,322.52 L607.6075,324.32 L607.743,324.5254 L609.9661,325.7446 L612.585,327.5634 L615.2521,329.4554 L617.6383,330.9217 L620.1722,332.6119 L620.1904,332.6361 L622.5292,334.3781 L624.951,336.2306 L627.3327,338.0297 L629.7908,339.9305 L632,341.5 L632.1939,341.7266 L633.7279,343.0401 L635.1369,344.2075 L636.7289,345.5888 L638.3295,346.9802 L639.6582,348.0538 L639.4377,347.8212 L641.3524,349.6821 L642.541,350.777 L644.2816,352.4543 L645.4538,353.5318 L647.0919,355.1009 L647.07,355.0798 L648.7636,356.8137 L649.9459,358.0531 L651.4299,359.5842 L652.9392,361.1399 L654.2659,362.5189 L654.4035,362.6424 L655.6404,364.0509 L657.1125,365.6706 L658.204,366.9486 L659.8632,368.7362 L661.145,370.185 L661.3315,370.3418 L662.6061,371.8705 L663.9732,373.477 L664.9101,374.7219 L666.1624,376.2319 L667.6941,377.9768 L667.4778,377.8051 L668.9104,379.5195 L670.0993,381.0404 L671.6418,382.8419 L672.5805,384.1644 L673.8781,385.7716 L673.7554,385.6811 L676.1862,388.8534 L678.0923,391.6391 L680.3715,394.6998 L683.0158,398.0294 L685.01,400.88 " fill="none" style="stroke:#383838;stroke-width:1.0;"/><polygon fill="#383838" points="688.03,405.21,688.0988,405.2231,687.5247,403.2493,687.3541,401.3525,687.052,399.4307,686.318,397.4262,686.1819,395.5361,686.1564,395.5315,685.8412,396.6243,685.6546,397.7402,685.5572,398.8723,685.152,399.9488,685.178,401.1032,685.2108,401.2848,684.0273,400.6956,682.9395,400.6367,681.8633,400.6425,680.7193,400.2719,679.611,400.0993,679.6228,400.1187,681.2892,401.1123,683.0095,402.1944,684.7037,403.2338,686.4475,404.3547,688.03,405.21" style="stroke:#383838;stroke-width:1.0;"/><text fill="#000000" font-family="sans-serif" font-size="13" lengthAdjust="spacing" textLength="107" x="665" y="363.9951">upload HTML/CSS</text><!--MD5=[899b6bd7aa3b47c3668d9744b7eee656]
link scheduler to pubsub--><path d="M208.05,605 L208.05,605.0934 L214.028,604.8159 L220.006,605.0859 L225.984,605.1776 L231.962,604.6829 L237.94,605 " fill="none" style="stroke:#383838;stroke-width:1.0;"/><polygon fill="#383838" points="243.15,605,243.1785,605.064,241.2939,604.0738,239.5762,603.4589,237.8041,602.7217,235.8534,601.5827,234.15,601,234.1317,600.9817,234.8495,601.6995,235.6596,602.5096,236.5339,603.3839,237.187,604.037,238.15,605,238.2805,605.1305,237.2014,605.6514,236.5034,606.5534,235.8518,607.5018,234.9298,608.1798,234.15,609,234.1592,609.0208,235.9457,608.1903,237.7742,607.4544,239.5824,606.6728,241.4293,605.9784,243.15,605" style="stroke:#383838;stroke-width:1.0;"/><!--MD5=[1356550e17eca18d628e327144e40ee5]
link pubsub to function--><path d="M374.51,605 L374.51,605.0934 L380.46,604.8159 L386.41,605.0859 L392.36,605.1776 L398.31,604.6829 L404.26,605 " fill="none" style="stroke:#383838;stroke-width:1.0;"/><polygon fill="#383838" points="409.45,605,409.4785,605.064,407.5939,604.0738,405.8762,603.4589,404.1041,602.7217,402.1534,601.5827,400.45,601,400.4317,600.9817,401.1495,601.6995,401.9596,602.5096,402.8339,603.3839,403.487,604.037,404.45,605,404.5805,605.1305,403.5014,605.6514,402.8034,606.5534,402.1518,607.5018,401.2298,608.1798,400.45,609,400.4592,609.0208,402.2457,608.1903,404.0742,607.4544,405.8824,606.6728,407.7293,605.9784,409.45,605" style="stroke:#383838;stroke-width:1.0;"/><!--MD5=[7a9315210de68f60d10f045622d2ac59]
reverse link db to function--><path d="M348.52,473.89 L348.7164,474.0899 L355.3916,480.6245 L363.2179,488.3312 L370.6694,495.6562 L376.8882,501.726 L384.7407,509.4594 L391.6735,516.2563 L398.9724,523.4258 L406.5257,530.8545 L413.2021,537.3903 L421.6239,545.7033 L427.7765,551.7058 L435.4392,559.2459 L443.2862,566.9736 L450.0612,573.6097 L457.4,580.82 " fill="none" style="stroke:#383838;stroke-width:1.0;"/><polygon fill="#383838" points="344.6,470.04,344.6651,470.0658,345.1972,471.8204,346.1112,473.7262,346.9008,475.5828,347.2815,477.2774,348.2282,479.1962,348.2023,479.1959,348.0746,478.0635,348.0775,476.9323,348.1712,475.802,347.952,474.6686,348.1711,473.5396,348.1729,473.7242,349.3003,473.3181,350.433,473.4509,351.5665,473.6493,352.696,473.4653,353.8276,473.4825,353.8356,473.5038,351.9784,472.784,350.1574,472.1613,348.3189,471.4917,346.5138,470.9114,344.6,470.04" style="stroke:#383838;stroke-width:1.0;"/><text fill="#000000" font-family="sans-serif" font-size="13" lengthAdjust="spacing" textLength="119" x="392" y="516.9951">increase notified_cnt</text><!--MD5=[4775de1d319bd285fc3d93eed1c17169]
@startuml

'Skin
!include ./skin.pu

'MODULEs
actor "browser"

package "GCP" {
  database "Postgres\nusing Cloud SQL" as db {
  }

  package "Private Memos" {
    node "APP(Vue.js)\nusing GAE" as app {
    }
    node "API(Go)\nusing Cloud Run" as api {
    }
  }

  package "Public Memos" {
    node "HTML/CSS\nusing Cloud Storage" as gcs {
    }
    node "memo exposer program\nusing Compute Engine" as gce {
    }
  }

  package "Batch" {
    node "Cloud Scheduler\nexecute am 00:00" as scheduler {
    }
    node "Cloud PubSub" as pubsub {
    }
    node "Cloud Functions" as function {
    }
  }
}

'RELATIONs

''private memos
browser - -> app: Authenticate & Manage memos.\n[[https://app-dot-tag-mng-243823.appspot.com/]]
app -> api
api -down-> db

''public memos
browser -> gcs : View exposed memos.\n[[http://www.dododo.site/]]
gce -down-> db : fetch exposed memo data\nper 3min
gce -> gce : HTML/CSS generated by HUGO
gce -down-> gcs : upload HTML/CSS

''batch
scheduler -> pubsub
pubsub -> function
function -up-> db : increase notified_cnt

@enduml

@startuml


skinparam monochrome true

skinparam shadowing false

skinparam handwritten true


actor "browser"

package "GCP" {
  database "Postgres\nusing Cloud SQL" as db {
  }

  package "Private Memos" {
    node "APP(Vue.js)\nusing GAE" as app {
    }
    node "API(Go)\nusing Cloud Run" as api {
    }
  }

  package "Public Memos" {
    node "HTML/CSS\nusing Cloud Storage" as gcs {
    }
    node "memo exposer program\nusing Compute Engine" as gce {
    }
  }

  package "Batch" {
    node "Cloud Scheduler\nexecute am 00:00" as scheduler {
    }
    node "Cloud PubSub" as pubsub {
    }
    node "Cloud Functions" as function {
    }
  }
}


browser - -> app: Authenticate & Manage memos.\n[[https://app-dot-tag-mng-243823.appspot.com/]]
app -> api
api -down-> db

browser -> gcs : View exposed memos.\n[[http://www.dododo.site/]]
gce -down-> db : fetch exposed memo data\nper 3min
gce -> gce : HTML/CSS generated by HUGO
gce -down-> gcs : upload HTML/CSS

scheduler -> pubsub
pubsub -> function
function -up-> db : increase notified_cnt

@enduml

PlantUML version 1.2022.0(Wed Jan 12 01:16:42 JST 2022)
(GPL source distribution)
Java Runtime: Java(TM) SE Runtime Environment
JVM: Java HotSpot(TM) 64-Bit Server VM
Default Encoding: MS932
Language: ja
Country: JP
--></g></svg>